<svg width="100" height="100" viewBox="0 0 100 100" fill="none" xmlns="http://www.w3.org/2000/svg" xmlns:xlink="http://www.w3.org/1999/xlink">
<rect width="100" height="100" rx="50" fill="url(#pattern0)"/>
<rect width="100" height="100" rx="50" fill="#FDDC03"/>
<path d="M67.4027 40.0386C66.6442 39.2439 65.5967 38.7743 64.4046 38.7743H58.4084V38.7021C58.4084 37.7991 58.0472 36.9321 57.4332 36.3542C56.8191 35.7401 55.9883 35.3789 55.0852 35.3789H44.2487C43.3096 35.3789 42.4788 35.7401 41.8647 36.3542C41.2506 36.9683 40.8894 37.7991 40.8894 38.7021V38.7743H34.9293C33.7373 38.7743 32.6898 39.2439 31.9313 40.0386C31.1727 40.7972 30.667 41.8808 30.667 43.0367V61.0253C30.667 62.2173 31.1366 63.2648 31.9313 64.0234C32.6898 64.7819 33.7735 65.2877 34.9293 65.2877H64.4046C65.5967 65.2877 66.6442 64.8181 67.4027 64.0234C68.1613 63.2648 68.667 62.1812 68.667 61.0253V43.0367C68.667 41.8447 68.1974 40.7972 67.4027 40.0386ZM66.7887 61.0253H66.7525C66.7525 61.6755 66.4997 62.2534 66.0662 62.6869C65.6328 63.1204 65.0548 63.3732 64.4046 63.3732H34.9293C34.2792 63.3732 33.7012 63.1204 33.2678 62.6869C32.8343 62.2534 32.5814 61.6755 32.5814 61.0253V43.0367C32.5814 42.3865 32.8343 41.8086 33.2678 41.3751C33.7012 40.9416 34.2792 40.6888 34.9293 40.6888H41.9008C42.4427 40.6888 42.8761 40.2553 42.8761 39.7135V38.666C42.8761 38.2686 43.0206 37.9074 43.2735 37.6546C43.5263 37.4017 43.8875 37.2572 44.2849 37.2572H55.0852C55.4826 37.2572 55.8438 37.4017 56.0967 37.6546C56.3495 37.9074 56.494 38.2686 56.494 38.666V39.7135C56.494 40.2553 56.9274 40.6888 57.4693 40.6888H64.4408C65.091 40.6888 65.6689 40.9416 66.1024 41.3751C66.5358 41.8086 66.7887 42.3865 66.7887 43.0367V61.0253Z" fill="#1B1D1E"/>
<path d="M49.6682 43.145C47.2119 43.145 44.9723 44.1564 43.383 45.7458C41.7575 47.3713 40.7822 49.5747 40.7822 52.031C40.7822 54.4872 41.7936 56.7268 43.383 58.3161C45.0085 59.9416 47.2119 60.9169 49.6682 60.9169C52.1244 60.9169 54.364 59.9055 55.9533 58.3161C57.5788 56.6907 58.5541 54.4872 58.5541 52.031C58.5541 49.5747 57.5427 47.3351 55.9533 45.7458C54.364 44.1564 52.1244 43.145 49.6682 43.145ZM54.5807 56.9796C53.3164 58.2078 51.5826 59.0024 49.6682 59.0024C47.7537 59.0024 46.0199 58.2078 44.7556 56.9796C43.4914 55.7154 42.7328 53.9815 42.7328 52.0671C42.7328 50.1526 43.5275 48.4188 44.7556 47.1545C46.0199 45.8903 47.7537 45.1317 49.6682 45.1317C51.5826 45.1317 53.3164 45.9264 54.5807 47.1545C55.845 48.4188 56.6035 50.1526 56.6035 52.0671C56.6396 53.9815 55.845 55.7154 54.5807 56.9796Z" fill="#1B1D1E"/>
<path d="M62.5278 46.6488C63.5053 46.6488 64.2977 45.8564 64.2977 44.8789C64.2977 43.9013 63.5053 43.1089 62.5278 43.1089C61.5502 43.1089 60.7578 43.9013 60.7578 44.8789C60.7578 45.8564 61.5502 46.6488 62.5278 46.6488Z" fill="#1B1D1E"/>
<defs>
<pattern id="pattern0" patternContentUnits="objectBoundingBox" width="1" height="1">
<use xlink:href="#image0" transform="translate(0 -0.247475) scale(0.010101)"/>
</pattern>
<circle cx="50" cy="50" r="50" stroke="none" fill="#FDDC03" />
</defs>
</svg>
