<svg xmlns="http://www.w3.org/2000/svg" width="26" height="26" fill="none" viewBox="0 0 26 26"><rect width="26" height="26" fill="#FDDC03" rx="6.036"/><path fill="#000" fill-rule="evenodd" d="M16.774 7.893v1.949h5.974v-1.95h-5.974zm-8.686 9.08c-.456.218-.984.327-1.585.327-.443 0-.863-.07-1.259-.208a3.054 3.054 0 01-1.038-.606 2.809 2.809 0 01-.7-.982 3.29 3.29 0 01-.256-1.332c0-.483.083-.921.25-1.314a2.97 2.97 0 01.676-.999 3.014 3.014 0 011.009-.636c.388-.15.807-.226 1.258-.226.436 0 .835.073 1.2.22.363.147.676.359.937.636.261.278.465.615.612 1.011.146.397.22.848.22 1.356v.238c0 .08-.005.154-.013.226H5.114c.016.166.065.317.148.452.083.135.19.251.32.35a1.552 1.552 0 00.944.316c.31 0 .57-.058.784-.173.214-.115.388-.263.522-.446l1.354.857a2.74 2.74 0 01-1.098.933zm-2.856-3.936c-.07.138-.11.283-.118.434h2.505c0-.31-.097-.575-.291-.797-.194-.222-.485-.333-.873-.333-.19 0-.364.03-.522.09a1.35 1.35 0 00-.416.243 1.204 1.204 0 00-.285.363zM12.57 17.3c.3 0 .601-.035.902-.107.3-.071.572-.186.813-.345.242-.158.438-.366.588-.624.15-.258.226-.573.226-.946 0-.285-.056-.53-.167-.737a1.65 1.65 0 00-.439-.523 2.367 2.367 0 00-.611-.345 4.452 4.452 0 00-.671-.202 5.551 5.551 0 01-.825-.238c-.17-.072-.255-.19-.255-.357 0-.174.077-.297.231-.369.154-.071.323-.107.505-.107.237 0 .463.052.676.155.214.103.4.23.558.38l1.069-1.106a2.806 2.806 0 00-1.075-.624 4.147 4.147 0 00-1.3-.208c-.284 0-.571.038-.86.113a2.582 2.582 0 00-.79.35 1.912 1.912 0 00-.581.613c-.15.25-.226.553-.226.91 0 .278.052.515.155.714.102.198.235.364.397.5.162.134.346.241.552.32.206.08.412.143.617.19.404.096.7.187.89.274.19.087.286.222.286.405 0 .19-.077.323-.232.398a1.06 1.06 0 01-.469.113c-.285 0-.554-.064-.807-.19a2.184 2.184 0 01-.641-.476l-1.092 1.153c.309.302.694.53 1.157.684.463.155.936.232 1.419.232zm9.924-6.113v8.777h-1.935v-3.508h-.023c-.19.254-.445.454-.766.6-.32.147-.663.22-1.027.22-.451 0-.85-.087-1.199-.261a2.663 2.663 0 01-.878-.696 3.122 3.122 0 01-.546-1.005 3.743 3.743 0 01.006-2.373c.13-.376.316-.707.557-.993.242-.285.535-.511.879-.678.344-.166.73-.25 1.157-.25.444 0 .825.09 1.146.268a2.4 2.4 0 01.754.625h.035v-.726h1.84zm-3.288 4.472c-.23 0-.431-.044-.605-.13a1.35 1.35 0 01-.44-.346 1.454 1.454 0 01-.267-.493 1.794 1.794 0 010-1.124c.06-.182.149-.343.267-.482a1.336 1.336 0 011.045-.47c.222 0 .42.044.594.131.174.087.322.202.445.345.122.143.218.305.285.488a1.603 1.603 0 01-.285 1.605 1.415 1.415 0 01-.445.345c-.174.087-.372.131-.594.131z" clip-rule="evenodd"/></svg>