<svg width="132" height="60" viewBox="0 0 132 60" fill="none" xmlns="http://www.w3.org/2000/svg">
<rect x="0.782227" width="130.435" height="60" rx="14.3478" fill="#FDDC03"/>
<path fill-rule="evenodd" clip-rule="evenodd" d="M60.4249 22.6826V18.2603H46.9505V22.6826H60.4249ZM117.873 19.4245V18.7657H115.291V19.4245H116.196V21.9606H116.969V19.4245H117.873ZM120.505 20.8144L119.777 18.7657H118.678V21.9606H119.406L119.388 19.6998H119.402L120.211 21.9606H120.754L121.586 19.6998H121.599L121.581 21.9606H122.336V18.7657H121.219L120.523 20.8144H120.505ZM69.0763 29.1463V39.3515H64.6286V29.1463H62.1606V25.7991H64.6286V24.4928C64.6286 23.6583 64.719 22.8645 64.8998 22.1116C65.0806 21.3587 65.3925 20.6965 65.8354 20.125C66.2784 19.5535 66.8751 19.1 67.6254 18.7643C68.3757 18.4287 69.3114 18.2609 70.4324 18.2609C70.8121 18.2609 71.1872 18.2836 71.5579 18.3289C71.9285 18.3743 72.2675 18.4423 72.5749 18.533L72.2766 22.0708C72.1138 22.0164 71.924 21.971 71.707 21.9347C71.4901 21.8984 71.2731 21.8803 71.0561 21.8803C70.6403 21.8803 70.3058 21.9529 70.0527 22.098C69.7996 22.2432 69.6007 22.4382 69.456 22.6831C69.3114 22.928 69.2119 23.2047 69.1577 23.5131C69.1035 23.8215 69.0763 24.13 69.0763 24.4384V25.7991H72.0867V29.1463H69.0763ZM27.4862 39.0383C26.4465 39.5372 25.2397 39.7867 23.8656 39.7867C22.8531 39.7867 21.8948 39.628 20.9908 39.3105C20.0868 38.993 19.2958 38.5303 18.6178 37.9226C17.9398 37.3148 17.4064 36.5664 17.0177 35.6774C16.6289 34.7885 16.4346 33.7725 16.4346 32.6295C16.4346 31.5228 16.6244 30.5205 17.0041 29.6224C17.3838 28.7244 17.8991 27.9624 18.55 27.3365C19.2009 26.7105 19.9693 26.2252 20.8552 25.8805C21.7411 25.5358 22.6994 25.3635 23.73 25.3635C24.7244 25.3635 25.6375 25.5313 26.4691 25.8669C27.3008 26.2026 28.015 26.6879 28.6117 27.3229C29.2083 27.9578 29.6739 28.7289 30.0084 29.636C30.3429 30.5431 30.5101 31.5773 30.5101 32.7384V33.2826C30.5101 33.4641 30.5011 33.6364 30.483 33.7997H20.6925C20.7286 34.1807 20.8416 34.5254 21.0315 34.8338C21.2213 35.1422 21.4654 35.4098 21.7637 35.6366C22.0621 35.8634 22.3966 36.0403 22.7672 36.1673C23.1378 36.2943 23.5221 36.3578 23.9198 36.3578C24.625 36.3578 25.2216 36.2263 25.7098 35.9632C26.1979 35.7001 26.5957 35.36 26.9031 34.9427L29.9948 36.9021C29.362 37.8273 28.5258 38.5394 27.4862 39.0383ZM20.6928 31.0243H26.4152C26.4152 30.3167 26.1937 29.709 25.7508 29.201C25.3078 28.693 24.6434 28.439 23.7574 28.439C23.3235 28.439 22.9257 28.507 22.5641 28.6431C22.2025 28.7792 21.8861 28.9651 21.6149 29.201C21.3437 29.4368 21.1267 29.7135 20.964 30.031C20.8013 30.3485 20.7109 30.6796 20.6928 31.0243ZM37.7248 39.7867C38.4118 39.7867 39.0989 39.7051 39.7859 39.5418C40.473 39.3785 41.0922 39.1154 41.6437 38.7526C42.1951 38.3897 42.6426 37.9135 42.9861 37.3239C43.3297 36.7342 43.5014 36.0131 43.5014 35.1604C43.5014 34.5073 43.3749 33.9448 43.1217 33.4731C42.8686 33.0014 42.5341 32.6023 42.1183 32.2757C41.7024 31.9492 41.2369 31.6861 40.7216 31.4865C40.2063 31.287 39.6955 31.1328 39.1893 31.0239C38.3214 30.8243 37.6931 30.6429 37.3044 30.4796C36.9157 30.3164 36.7213 30.0442 36.7213 29.6632C36.7213 29.2641 36.8976 28.9829 37.2502 28.8196C37.6027 28.6563 37.9869 28.5747 38.4028 28.5747C38.9452 28.5747 39.4605 28.6926 39.9487 28.9285C40.4368 29.1643 40.8617 29.4546 41.2233 29.7993L43.6642 27.2684C42.9952 26.6334 42.177 26.1572 41.2098 25.8397C40.2425 25.5222 39.2526 25.3635 38.2401 25.3635C37.5892 25.3635 36.9338 25.4496 36.2738 25.622C35.6139 25.7944 35.0127 26.062 34.4703 26.4248C33.9279 26.7877 33.4849 27.2548 33.1414 27.8263C32.7979 28.3978 32.6261 29.0917 32.6261 29.9082C32.6261 30.5431 32.7436 31.0874 32.9787 31.541C33.2137 31.9945 33.5166 32.3755 33.8872 32.6839C34.2579 32.9924 34.6782 33.2373 35.1483 33.4187C35.6184 33.6001 36.0885 33.7453 36.5586 33.8541C37.4807 34.0718 38.1587 34.2805 38.5926 34.48C39.0266 34.6796 39.2435 34.988 39.2435 35.4053C39.2435 35.8407 39.0672 36.1446 38.7147 36.317C38.3621 36.4893 38.005 36.5755 37.6434 36.5755C36.9925 36.5755 36.3778 36.4304 35.7992 36.1401C35.2206 35.8498 34.7325 35.4869 34.3347 35.0515L31.8396 37.6913C32.5448 38.3807 33.4262 38.9023 34.4839 39.256C35.5416 39.6098 36.6219 39.7867 37.7248 39.7867ZM60.3979 25.7992V45.8829H55.9773V37.8549H55.923C55.4891 38.4354 54.906 38.8935 54.1737 39.2292C53.4415 39.5648 52.6595 39.7326 51.8278 39.7326C50.7972 39.7326 49.8842 39.533 49.0886 39.1339C48.2931 38.7348 47.6241 38.2041 47.0817 37.5419C46.5393 36.8797 46.1235 36.1132 45.8342 35.2424C45.5449 34.3715 45.4003 33.4644 45.4003 32.521C45.4003 31.5776 45.5494 30.675 45.8478 29.8132C46.1461 28.9515 46.571 28.194 47.1224 27.5409C47.6739 26.8878 48.3428 26.3707 49.1293 25.9897C49.9158 25.6087 50.7972 25.4182 51.7736 25.4182C52.7861 25.4182 53.6585 25.6223 54.3907 26.0306C55.123 26.4388 55.697 26.915 56.1129 27.4593H56.1942V25.7992H60.3979ZM52.8855 36.0311C52.3611 36.0311 51.9001 35.9313 51.5023 35.7318C51.1046 35.5322 50.7701 35.2691 50.4989 34.9426C50.2277 34.616 50.0243 34.2396 49.8887 33.8132C49.7531 33.3869 49.6853 32.956 49.6853 32.5206C49.6853 32.0851 49.7531 31.6588 49.8887 31.2415C50.0243 30.8242 50.2277 30.4569 50.4989 30.1394C50.7701 29.8219 51.1046 29.5633 51.5023 29.3638C51.9001 29.1642 52.3611 29.0644 52.8855 29.0644C53.3917 29.0644 53.8437 29.1642 54.2415 29.3638C54.6393 29.5633 54.9783 29.8264 55.2585 30.153C55.5388 30.4795 55.7557 30.8515 55.9094 31.2687C56.0631 31.686 56.1399 32.1124 56.1399 32.5478C56.1399 32.9832 56.0631 33.4095 55.9094 33.8268C55.7557 34.2441 55.5388 34.616 55.2585 34.9426C54.9783 35.2691 54.6393 35.5322 54.2415 35.7318C53.8437 35.9313 53.3917 36.0311 52.8855 36.0311ZM76.1816 23.9211C76.5251 23.9211 76.8506 23.8576 77.1579 23.7306C77.4653 23.6036 77.7365 23.4312 77.9715 23.2135C78.2066 22.9958 78.3919 22.7373 78.5275 22.4379C78.6631 22.1386 78.7309 21.8165 78.7309 21.4718C78.7309 21.1271 78.6631 20.8051 78.5275 20.5058C78.3919 20.2064 78.2066 19.9479 77.9715 19.7302C77.7365 19.5125 77.4653 19.3401 77.1579 19.2131C76.8506 19.0861 76.5251 19.0226 76.1816 19.0226C75.82 19.0226 75.4855 19.0906 75.1781 19.2267C74.8708 19.3628 74.5996 19.5397 74.3645 19.7574C74.1295 19.9751 73.9487 20.2336 73.8221 20.533C73.6955 20.8323 73.6323 21.1453 73.6323 21.4718C73.6323 22.1431 73.8763 22.7191 74.3645 23.1999C74.8527 23.6807 75.4584 23.9211 76.1816 23.9211ZM78.4052 25.7991V39.3515H73.9303V25.7991H78.4052ZM86.4058 39.3516V32.0039C86.4058 31.623 86.4555 31.2556 86.555 30.9018C86.6544 30.548 86.8036 30.2351 87.0024 29.9629C87.2013 29.6908 87.4499 29.4776 87.7483 29.3234C88.0466 29.1692 88.3946 29.0921 88.7924 29.0921C89.1902 29.0921 89.5201 29.1692 89.7823 29.3234C90.0445 29.4776 90.2479 29.6862 90.3925 29.9493C90.5371 30.2124 90.6411 30.5163 90.7044 30.861C90.7677 31.2057 90.7993 31.5685 90.7993 31.9495V39.3516H95.2742V30.9698C95.2742 30.2986 95.1883 29.6273 95.0165 28.956C94.8448 28.2847 94.5645 27.6906 94.1758 27.1735C93.7871 26.6565 93.2763 26.2347 92.6435 25.9081C92.0107 25.5815 91.2423 25.4182 90.3383 25.4182C89.8682 25.4182 89.4252 25.4817 89.0094 25.6087C88.5935 25.7357 88.2093 25.899 87.8567 26.0986C87.5042 26.2982 87.1968 26.5385 86.9346 26.8197C86.6725 27.101 86.46 27.3867 86.2973 27.677H86.2431V25.7992H81.9309V39.3516H86.4058ZM106.949 39.1747C106.145 39.5466 105.29 39.7325 104.386 39.7325C103.374 39.7325 102.47 39.533 101.674 39.1338C100.879 38.7347 100.205 38.204 99.6539 37.5418C99.1024 36.8796 98.6821 36.1131 98.3928 35.2423C98.1035 34.3715 97.9589 33.4643 97.9589 32.5209C97.9589 31.5775 98.108 30.6749 98.4063 29.8132C98.7047 28.9514 99.1296 28.194 99.681 27.5408C100.232 26.8877 100.901 26.3706 101.688 25.9897C102.474 25.6087 103.356 25.4182 104.332 25.4182C105.327 25.4182 106.167 25.6087 106.854 25.9897C107.541 26.3706 108.075 26.7879 108.454 27.2415H108.509V18.778H112.956V39.3516H108.861V37.5827H108.807C108.373 38.2721 107.754 38.8027 106.949 39.1747ZM105.444 36.0311C104.92 36.0311 104.459 35.9313 104.061 35.7318C103.663 35.5322 103.329 35.2691 103.057 34.9426C102.786 34.616 102.583 34.2396 102.447 33.8132C102.312 33.3869 102.244 32.956 102.244 32.5206C102.244 32.0851 102.312 31.6588 102.447 31.2415C102.583 30.8242 102.786 30.4569 103.057 30.1394C103.329 29.8219 103.663 29.5633 104.061 29.3638C104.459 29.1642 104.92 29.0644 105.444 29.0644C105.95 29.0644 106.402 29.1642 106.8 29.3638C107.198 29.5633 107.537 29.8264 107.817 30.153C108.097 30.4795 108.314 30.8515 108.468 31.2687C108.622 31.686 108.699 32.1124 108.699 32.5478C108.699 32.9832 108.622 33.4095 108.468 33.8268C108.314 34.2441 108.097 34.616 107.817 34.9426C107.537 35.2691 107.198 35.5322 106.8 35.7318C106.402 35.9313 105.95 36.0311 105.444 36.0311Z" fill="black"/>
</svg>
