<svg xmlns="http://www.w3.org/2000/svg" width="26" height="39" fill="none" viewBox="0 0 26 39"><path fill="#20C2D2" fill-rule="evenodd" d="M1 13.269C1 6.493 6.373 1 13 1s12 5.493 12 12.269c0 2.249-.592 4.357-1.626 6.17C20.096 27.149 13 36.613 13 36.613S5.904 27.148 2.626 19.439A12.422 12.422 0 011 13.269z" clip-rule="evenodd"/><path fill="#fff" d="M23.374 19.439l-.868-.496-.03.05-.022.054.92.392zM13 36.613l-.8.6.8 1.067.8-1.067-.8-.6zM2.626 19.439l.92-.392-.023-.053-.029-.05-.868.495zM13 0C5.8 0 0 5.962 0 13.269h2C2 7.024 6.946 2 13 2V0zm13 13.269C26 5.962 20.2 0 13 0v2c6.054 0 11 5.024 11 11.269h2zm-1.757 6.665A13.422 13.422 0 0026 13.269h-2c0 2.072-.545 4.01-1.494 5.674l1.737.99zm-1.789-.887c-1.604 3.772-4.158 8.006-6.332 11.322a132.555 132.555 0 01-3.618 5.232 65.342 65.342 0 01-.3.406l-.003.005H12.2v.001l.8.6.8.6.002-.002c0-.002.002-.004.004-.006.004-.005.01-.012.016-.022l.062-.083.234-.318a134.962 134.962 0 003.676-5.316c2.193-3.344 4.826-7.697 6.5-11.636l-1.84-.783zM13 36.613l.8-.6v-.001l-.004-.005a3.928 3.928 0 00-.073-.098l-.227-.308a132.508 132.508 0 01-3.617-5.232c-2.175-3.316-4.73-7.55-6.333-11.322l-1.84.783c1.674 3.939 4.307 8.292 6.5 11.635a134.87 134.87 0 003.676 5.317l.234.318.062.083.016.022.004.006.001.001.801-.6zM0 13.269c0 2.426.64 4.705 1.757 6.665l1.737-.99A11.422 11.422 0 012 13.268H0z"/></svg>